<svg width="512" height="512" viewBox="0 0 512 512" fill="none" xmlns="http://www.w3.org/2000/svg">
  <rect width="512" height="512" rx="112" fill="#080A0F"/>
  <rect x="36" y="36" width="440" height="440" rx="104" fill="url(#bg)" stroke="rgba(96,165,250,0.16)"/>
  <path d="M256 112L360 168V280C360 342.856 315.405 395.707 256 408C196.595 395.707 152 342.856 152 280V168L256 112Z" fill="#0D1320" stroke="#1D4ED8" stroke-width="2.5"/>
  <path d="M256 153L322 188.5V271.5C322 311.193 295.419 347.718 256 357C216.581 347.718 190 311.193 190 271.5V188.5L256 153Z" fill="url(#core)"/>
  <path d="M219 216L256 253L293 216" stroke="#F8FAFC" stroke-width="18" stroke-linecap="round" stroke-linejoin="round"/>
  <path d="M219 293L256 256L293 293" stroke="#93C5FD" stroke-width="18" stroke-linecap="round" stroke-linejoin="round"/>
  <circle cx="154" cy="154" r="10" fill="#60A5FA"/>
  <circle cx="358" cy="154" r="10" fill="#60A5FA"/>
  <path d="M144 154H104" stroke="#1D4ED8" stroke-width="10" stroke-linecap="round"/>
  <path d="M368 154H408" stroke="#1D4ED8" stroke-width="10" stroke-linecap="round"/>
  <defs>
    <linearGradient id="bg" x1="76" y1="66" x2="434" y2="450" gradientUnits="userSpaceOnUse">
      <stop stop-color="#0C1120"/>
      <stop offset="1" stop-color="#0A0D14"/>
    </linearGradient>
    <linearGradient id="core" x1="256" y1="153" x2="256" y2="357" gradientUnits="userSpaceOnUse">
      <stop stop-color="#1D4ED8"/>
      <stop offset="1" stop-color="#0F172A"/>
    </linearGradient>
  </defs>
</svg>
